<svg xmlns="http://www.w3.org/2000/svg" width="1280" height="300"
     viewBox="0 0 1280 300" role="img"
     aria-label="Tauseef Mohammed Aoun - Data Science, Monash University">
  <rect x="1" y="1" width="1278" height="298" rx="16"
        fill="#161b22" stroke="#30363d" stroke-width="1.5"/>
  <polygon points="24,276 24.0,276.0 30.9,275.8 37.8,275.8 44.6,275.5 51.5,274.8 58.4,274.8 65.3,274.4 72.2,274.2 79.1,273.9 85.9,273.7 92.8,273.5 99.7,273.1 106.6,272.7 113.5,272.0 120.4,271.7 127.2,271.2 134.1,270.9 141.0,270.5 147.9,270.0 154.8,269.7 161.7,269.3 168.5,269.1 175.4,268.7 182.3,268.1 189.2,267.7 196.1,267.3 202.9,266.7 209.8,266.5 216.7,265.8 223.6,265.3 230.5,264.8 237.4,264.2 244.2,263.6 251.1,263.3 258.0,263.1 264.9,262.9 271.8,263.0 278.7,262.5 285.5,262.3 292.4,261.2 299.3,261.0 306.2,261.2 313.1,260.5 320.0,260.5 326.8,260.3 333.7,260.4 340.6,259.8 347.5,259.5 354.4,259.7 361.3,258.5 368.1,258.0 375.0,257.8 381.9,256.8 388.8,256.8 395.7,256.4 402.5,255.3 409.4,254.7 416.3,254.2 423.2,253.8 430.1,253.5 437.0,253.0 443.8,253.5 450.7,253.1 457.6,252.3 464.5,252.2 471.4,251.5 478.3,251.2 485.1,251.1 492.0,250.8 498.9,250.2 505.8,249.8 512.7,248.7 519.6,248.0 526.4,247.3 533.3,247.0 540.2,247.1 547.1,247.0 554.0,247.8 560.8,245.3 567.7,244.2 574.6,242.9 581.5,242.5 588.4,242.1 595.3,240.6 602.1,239.8 609.0,239.0 615.9,238.1 622.8,237.2 629.7,237.2 636.6,235.9 643.4,234.8 650.3,232.8 657.2,232.3 664.1,231.7 671.0,231.1 677.9,230.7 684.7,230.8 691.6,230.9 698.5,229.8 705.4,229.5 712.3,228.5 719.2,227.7 726.0,226.2 732.9,225.6 739.8,224.7 746.7,222.4 753.6,221.8 760.4,220.9 767.3,219.6 774.2,219.5 781.1,219.1 788.0,218.8 794.9,218.2 801.7,216.5 808.6,214.5 815.5,215.1 822.4,214.4 829.3,213.3 836.2,212.9 843.0,212.0 849.9,212.6 856.8,211.8 863.7,211.6 870.6,211.3 877.5,210.1 884.3,209.6 891.2,208.8 898.1,208.0 905.0,207.4 911.9,207.6 918.7,206.0 925.6,205.9 932.5,205.2 939.4,203.5 946.3,201.8 953.2,201.5 960.0,200.6 966.9,199.2 973.8,198.4 980.7,197.6 987.6,196.5 994.5,195.9 1001.3,194.9 1008.2,194.1 1015.1,193.9 1022.0,192.5 1028.9,191.9 1035.8,192.0 1042.6,191.0 1049.5,191.2 1056.4,189.8 1063.3,189.0 1070.2,188.4 1077.1,187.3 1083.9,186.8 1090.8,186.2 1097.7,186.3 1104.6,185.5 1111.5,184.3 1118.3,183.7 1125.2,195.2 1132.1,177.1 1139.0,178.9 1145.9,172.2 1152.8,173.2 1159.6,173.5 1166.5,176.6 1173.4,165.2 1180.3,163.6 1187.2,160.1 1194.1,157.3 1200.9,155.9 1207.8,155.4 1214.7,154.8 1221.6,155.3 1228.5,154.7 1235.4,154.0 1242.2,153.2 1249.1,152.0 1256.0,150.0 1256,276" fill="#2dd4bf" opacity="0.14"/>
  <polyline points="24.0,276.0 30.9,275.8 37.8,275.8 44.6,275.5 51.5,274.8 58.4,274.8 65.3,274.4 72.2,274.2 79.1,273.9 85.9,273.7 92.8,273.5 99.7,273.1 106.6,272.7 113.5,272.0 120.4,271.7 127.2,271.2 134.1,270.9 141.0,270.5 147.9,270.0 154.8,269.7 161.7,269.3 168.5,269.1 175.4,268.7 182.3,268.1 189.2,267.7 196.1,267.3 202.9,266.7 209.8,266.5 216.7,265.8 223.6,265.3 230.5,264.8 237.4,264.2 244.2,263.6 251.1,263.3 258.0,263.1 264.9,262.9 271.8,263.0 278.7,262.5 285.5,262.3 292.4,261.2 299.3,261.0 306.2,261.2 313.1,260.5 320.0,260.5 326.8,260.3 333.7,260.4 340.6,259.8 347.5,259.5 354.4,259.7 361.3,258.5 368.1,258.0 375.0,257.8 381.9,256.8 388.8,256.8 395.7,256.4 402.5,255.3 409.4,254.7 416.3,254.2 423.2,253.8 430.1,253.5 437.0,253.0 443.8,253.5 450.7,253.1 457.6,252.3 464.5,252.2 471.4,251.5 478.3,251.2 485.1,251.1 492.0,250.8 498.9,250.2 505.8,249.8 512.7,248.7 519.6,248.0 526.4,247.3 533.3,247.0 540.2,247.1 547.1,247.0 554.0,247.8 560.8,245.3 567.7,244.2 574.6,242.9 581.5,242.5 588.4,242.1 595.3,240.6 602.1,239.8 609.0,239.0 615.9,238.1 622.8,237.2 629.7,237.2 636.6,235.9 643.4,234.8 650.3,232.8 657.2,232.3 664.1,231.7 671.0,231.1 677.9,230.7 684.7,230.8 691.6,230.9 698.5,229.8 705.4,229.5 712.3,228.5 719.2,227.7 726.0,226.2 732.9,225.6 739.8,224.7 746.7,222.4 753.6,221.8 760.4,220.9 767.3,219.6 774.2,219.5 781.1,219.1 788.0,218.8 794.9,218.2 801.7,216.5 808.6,214.5 815.5,215.1 822.4,214.4 829.3,213.3 836.2,212.9 843.0,212.0 849.9,212.6 856.8,211.8 863.7,211.6 870.6,211.3 877.5,210.1 884.3,209.6 891.2,208.8 898.1,208.0 905.0,207.4 911.9,207.6 918.7,206.0 925.6,205.9 932.5,205.2 939.4,203.5 946.3,201.8 953.2,201.5 960.0,200.6 966.9,199.2 973.8,198.4 980.7,197.6 987.6,196.5 994.5,195.9 1001.3,194.9 1008.2,194.1 1015.1,193.9 1022.0,192.5 1028.9,191.9 1035.8,192.0 1042.6,191.0 1049.5,191.2 1056.4,189.8 1063.3,189.0 1070.2,188.4 1077.1,187.3 1083.9,186.8 1090.8,186.2 1097.7,186.3 1104.6,185.5 1111.5,184.3 1118.3,183.7 1125.2,195.2 1132.1,177.1 1139.0,178.9 1145.9,172.2 1152.8,173.2 1159.6,173.5 1166.5,176.6 1173.4,165.2 1180.3,163.6 1187.2,160.1 1194.1,157.3 1200.9,155.9 1207.8,155.4 1214.7,154.8 1221.6,155.3 1228.5,154.7 1235.4,154.0 1242.2,153.2 1249.1,152.0 1256.0,150.0" fill="none" stroke="#2dd4bf"
            stroke-width="2.5" stroke-linejoin="round" stroke-linecap="round"/>
  <text x="40" y="86" font-family="'Segoe UI', Helvetica, Arial, sans-serif" font-size="46"
        font-weight="700" letter-spacing="1.5" fill="#e6edf3">TAUSEEF MOHAMMED AOUN</text>
  <text x="42" y="124" font-family="'Segoe UI', Helvetica, Arial, sans-serif" font-size="21"
        fill="#8b949e">Data Science · Monash University · Systems that ship</text>
  <text x="1244" y="286" font-family="'Segoe UI', Helvetica, Arial, sans-serif" font-size="11.5"
        fill="#6e7681" text-anchor="end">background: real ABS retail turnover (1982–2024), processed by my pipeline</text>
</svg>
